<?xml version="1.0" standalone="no"?><!DOCTYPE svg PUBLIC "-//W3C//DTD SVG 1.1//EN" "http://www.w3.org/Graphics/SVG/1.1/DTD/svg11.dtd"><svg t="1711599397895" class="icon" viewBox="0 0 1024 1024" version="1.1" xmlns="http://www.w3.org/2000/svg" p-id="5749" xmlns:xlink="http://www.w3.org/1999/xlink" width="200" height="200"><path d="M512.33 826.31c-159.99 0-290.15-130.17-290.15-290.17s130.17-290.15 290.15-290.15 290.15 130.16 290.15 290.15-130.16 290.17-290.15 290.17z m0-505.66c-118.82 0-215.49 96.67-215.49 215.49 0 118.84 96.67 215.51 215.49 215.51s215.49-96.67 215.49-215.51c0-118.82-96.67-215.49-215.49-215.49z" p-id="5750"></path><path d="M671 826.31H353.67c-20.62 0-37.33-16.72-37.33-37.33s16.72-37.33 37.33-37.33H671c20.62 0 37.33 16.72 37.33 37.33s-16.71 37.33-37.33 37.33zM605.67 938.31H419c-20.62 0-37.33-16.72-37.33-37.33s16.72-37.33 37.33-37.33h186.67c20.62 0 37.33 16.72 37.33 37.33s-16.72 37.33-37.33 37.33zM512.33 204.93c-20.62 0-37.33-16.72-37.33-37.33v-42.13c0-20.62 16.72-37.33 37.33-37.33 20.62 0 37.33 16.72 37.33 37.33v42.13c0.01 20.62-16.71 37.33-37.33 37.33zM251.73 312.88c-9.55 0-19.11-3.65-26.4-10.94l-29.79-29.79c-14.58-14.58-14.58-38.21 0-52.79 14.57-14.58 38.23-14.58 52.79 0l29.79 29.79c14.58 14.58 14.58 38.21 0 52.79-7.28 7.3-16.84 10.94-26.39 10.94zM143.79 573.47h-42.12c-20.62 0-37.33-16.72-37.33-37.33s16.72-37.33 37.33-37.33h42.12c20.62 0 37.33 16.72 37.33 37.33s-16.72 37.33-37.33 37.33zM923 573.47h-42.12c-20.62 0-37.33-16.72-37.33-37.33s16.72-37.33 37.33-37.33H923c20.62 0 37.33 16.72 37.33 37.33s-16.71 37.33-37.33 37.33zM772.94 312.88c-9.55 0-19.1-3.65-26.4-10.94-14.58-14.57-14.58-38.21-0.01-52.79l29.78-29.79c14.58-14.58 38.22-14.58 52.8 0 14.58 14.57 14.58 38.21 0.01 52.79l-29.78 29.79c-7.29 7.3-16.85 10.94-26.4 10.94z" p-id="5751"></path></svg>