<?xml version="1.0" standalone="no"?><!DOCTYPE svg PUBLIC "-//W3C//DTD SVG 1.1//EN" "http://www.w3.org/Graphics/SVG/1.1/DTD/svg11.dtd"><svg t="1711599946105" class="icon" viewBox="0 0 1024 1024" version="1.1" xmlns="http://www.w3.org/2000/svg" p-id="18803" xmlns:xlink="http://www.w3.org/1999/xlink" width="200" height="200"><path d="M529.1 517.5c-31.2 0-56.5-25.4-56.5-56.5H440c0 49.1 40 89.1 89.1 89.1 49.1 0 89.1-40 89.1-89.1h-32.6c0 31.1-25.4 56.5-56.5 56.5z" fill="#698B9E" p-id="18804"></path><path d="M892.1 523.7c0 31.2-25.4 56.5-56.5 56.5-29.1 0-52.9-22.2-55.9-50.6V394.9c0-9-7.3-16.3-16.3-16.3s-16.3 7.3-16.3 16.3v128.8h-0.6c0 2 0.5 4 0.6 6v248.1c0 58.4-47.5 105.9-105.9 105.9s-105.9-47.5-105.9-105.9V659.2h-0.1C535 610 494.9 570 445.6 570c-48 0-87 38.1-89.2 85.6h-0.4v122.2c0 58.4-47.5 105.9-105.9 105.9s-105.9-47.5-105.9-107c-0.2-2.9-19.9-288.1-0.3-378.3 10.3-47.3 61.4-201.1 288.5-201.1h3.5c1.5 0 2.8-0.2 4.2-0.3v264h32.4V186.3c8-5.9 13.7-13.1 18.7-19.7 11.1-14.5 19.9-26 53.9-26 112 0 247.2 92.9 247.2 208.2l0.6 150.7h-0.1c0 23.8 19.4 43.2 43.2 43.2 23.8 0 43.2-19.4 43.2-43.2V247.9c0.5-5.1 3.6-8.6 6.5-8.6 3.2 0 6.5 4.1 6.5 9.9v274.6h32.4V248.6h-0.1c-0.3-23.1-17.4-41.9-38.9-41.9-21.7 0-38.9 19-38.9 42.4l-0.2 250.3c0 5.7-4.8 10.6-10.6 10.6s-10.6-4.8-10.6-10.6l-0.5-150.7c0-135.6-150.4-240.8-279.8-240.8-50.1 0-67.3 22.4-79.8 38.8-9.1 11.9-13.7 17.9-29.4 17.9h-3.6C180.8 164.6 123.5 338 112 391.4c-20.6 94.7-1.2 375.6-0.4 386.3 0 76.4 62.1 138.5 138.5 138.5s138.5-62.1 138.5-138.5V659.6c0.1-31.4 25.6-57 57-57 31.5 0 57.1 25.6 57.1 57.1h0.2v24.2c0 0.3-0.2 0.5-0.2 0.8v93c0 76.4 62.1 138.5 138.5 138.5s138.5-62.1 138.5-138.5V592.5c15.3 12.5 34.6 20.3 55.9 20.3 49.1 0 89.1-40 89.1-89.1h-32.6z" fill="#698B9E" p-id="18805"></path></svg>