<?xml version="1.0" standalone="no"?><!DOCTYPE svg PUBLIC "-//W3C//DTD SVG 1.1//EN" "http://www.w3.org/Graphics/SVG/1.1/DTD/svg11.dtd"><svg t="1711020763544" class="icon" viewBox="0 0 1024 1024" version="1.1" xmlns="http://www.w3.org/2000/svg" p-id="7440" xmlns:xlink="http://www.w3.org/1999/xlink" width="200" height="200"><path d="M835.068584 760.354648h-78.406066c24.777001-19.453821 38.396724-50.650583 38.396723-85.502615v-111.07108c0-62.670997-48.8209-114.686419-111.491897-114.68642H340.969171c-61.279537 0-112.123634 49.268338-114.319868 110.021598-0.515014 2.301694-0.87235 5.128642-0.87235 7.333067v108.403858c0 34.852033 17.31902 66.048795 42.096021 85.502616h-78.406066c-9.222135 0-16.696498 7.671973-16.696498 16.894108s7.474363 16.894108 16.696498 16.894108h645.599629c9.222135 0 16.696498-7.671973 16.696498-16.894108s-7.472315-16.895132-16.694451-16.895132z m-494.099413-278.496808h342.59715c38.934263 0 71.473339 28.702577 78.736781 65.539923l-79.98285 27.790296c-7.532724 2.578143-15.394116 4.249124-23.361991 4.507143-7.976067 0.265186-15.907082-0.511943-23.596462-2.594525l-85.800566-23.525813c-9.620427-2.604764-19.55109-4.141616-29.514518-4.141617h-0.195562c-9.896876 0-19.762011 1.5389-29.332267 4.093494l-90.707025 24.259939c-6.926584 1.848113-14.074328 2.899643-21.223095 2.830019-7.156958-0.043003-14.281153-0.98293-21.17702-2.915002l-95.663654-27.621354c6.165837-38.170445 39.33665-68.222503 79.221079-68.222503z m-82.426864 103.649959l88.764715 24.290656c9.765818 2.741965 20.939479 4.140592 31.072871 4.140592h0.72184c9.889708 0 19.7487-1.111939 29.323051-3.666534l90.709073-25.0299c6.758667-1.80511 13.727231-3.044011 20.714224-3.044011h0.141296c7.035116 0 14.048731 1.508183 20.84221 3.347081l85.798518 23.419329c10.890044 2.947766 22.12309 4.437519 33.414498 4.079159 11.283216-0.367575 21.649031-2.310909 32.31894-5.96106l69.92932-24.095094v91.864016c0 44.256419-34.471147 79.359304-78.727566 79.359303H340.969171c-44.256419 0-82.426864-35.102884-82.426864-79.359303v-89.344234z m119.282641-283.425792c9.222135 0 16.894108 7.474363 16.894107 16.696498v111.310669c0 9.222135-7.671973 16.696498-16.894107 16.696498s-16.894108-7.474363-16.894108-16.696498V318.778505c0-9.222135 7.671973-16.696498 16.894108-16.696498z m142.832002 0c9.222135 0 16.382165 7.474363 16.382166 16.696498v111.310669c0 9.222135-7.16003 16.696498-16.382166 16.696498s-16.382165-7.474363-16.382165-16.696498V318.778505c0-9.222135 7.16003-16.696498 16.382165-16.696498z m144.367831 0c9.222135 0 16.382165 7.474363 16.382165 16.696498v111.310669c0 9.222135-7.16003 16.696498-16.382165 16.696498s-16.382165-7.474363-16.382165-16.696498V318.778505c0-9.222135 7.16003-16.696498 16.382165-16.696498zM379.434495 281.72819c14.285248 0 25.908394-11.622122 25.908395-25.908394s-11.622122-25.908394-25.908395-25.908394c-14.285248 0-25.908394 11.622122-25.908394 25.908394s11.623146 25.908394 25.908394 25.908394z m143.499576 0c14.285248 0 25.908394-11.622122 25.908395-25.908394s-11.622122-25.908394-25.908395-25.908394c-14.285248 0-25.908394 11.622122-25.908394 25.908394s11.622122 25.908394 25.908394 25.908394z m143.498553 0c14.2832 0 25.905323-11.622122 25.905322-25.908394s-11.622122-25.908394-25.905322-25.908394c-14.285248 0-25.908394 11.622122-25.908395 25.908394s11.623146 25.908394 25.908395 25.908394z" fill="#272636" p-id="7441"></path></svg>