<?xml version="1.0" standalone="no"?><!DOCTYPE svg PUBLIC "-//W3C//DTD SVG 1.1//EN" "http://www.w3.org/Graphics/SVG/1.1/DTD/svg11.dtd"><svg t="1710511704825" class="icon" viewBox="0 0 1024 1024" version="1.1" xmlns="http://www.w3.org/2000/svg" p-id="6239" xmlns:xlink="http://www.w3.org/1999/xlink" width="200" height="200"><path d="M575.12 131l94.74 192a47.68 47.68 0 0 0 35.9 26.08l211.84 30.78c39.11 5.68 54.72 53.74 26.43 81.33l-153.3 149.39a47.68 47.68 0 0 0-13.73 42.2l36.19 211c6.68 39-34.2 68.65-69.18 50.26l-189.46-99.62a47.68 47.68 0 0 0-44.38 0L320.7 914c-35 18.39-75.86-11.31-69.18-50.26l36.19-211A47.68 47.68 0 0 0 274 610.58L120.7 461.16c-28.3-27.58-12.68-75.65 26.43-81.33L359 349.05A47.68 47.68 0 0 0 394.87 323l94.73-192c17.49-35.43 68.03-35.43 85.52 0z" fill="#8a8a8a" p-id="6240"></path><path d="M943.3 461.77c28.3-27.58 12.68-75.65-26.43-81.33L705 349.66a47.68 47.68 0 0 1-35.9-26.08l-94.74-192c-16.31-33.05-61.35-35.25-81.53-6.65a49.51 49.51 0 0 1 4 6.65l94.74 192a47.68 47.68 0 0 0 35.9 26.08l211.84 30.78c39.11 5.68 54.72 53.74 26.43 81.33L712.47 611.19a47.68 47.68 0 0 0-13.71 42.2l36.19 211a46.76 46.76 0 0 1-11.52 39.81l19.89 10.46c35 18.39 75.86-11.31 69.18-50.26l-36.19-211A47.68 47.68 0 0 1 790 611.19z" fill="#8a8a8a" p-id="6241"></path><path d="M263.93 925.77a54 54 0 0 1-53.06-63.05l36.19-211A41.47 41.47 0 0 0 235.13 615L81.85 465.6a53.88 53.88 0 0 1 29.87-91.9l211.83-30.78a41.51 41.51 0 0 0 31.23-22.69l94.73-192a53.89 53.89 0 0 1 96.64 0l94.74 192a41.5 41.5 0 0 0 31.23 22.69L884 373.7a53.88 53.88 0 0 1 29.86 91.9L760.53 615a41.45 41.45 0 0 0-11.93 36.71l36.19 211a53.88 53.88 0 0 1-78.18 56.8l-189.48-99.6a41.49 41.49 0 0 0-38.6 0l-189.47 99.61a53.86 53.86 0 0 1-25.13 6.25z m233.9-815.13a40.71 40.71 0 0 0-37.19 23.12l-94.73 192a53.89 53.89 0 0 1-40.57 29.47L113.5 386a41.48 41.48 0 0 0-23 70.75l153.3 149.39a53.88 53.88 0 0 1 15.5 47.69l-36.19 211a41.48 41.48 0 0 0 60.18 43.73l189.48-99.61a53.81 53.81 0 0 1 50.15 0l189.47 99.61a41.48 41.48 0 0 0 60.18-43.73l-36.19-211a53.86 53.86 0 0 1 15.5-47.69l153.28-149.42a41.48 41.48 0 0 0-23-70.75l-211.82-30.78a53.88 53.88 0 0 1-40.57-29.47L535 133.75a40.71 40.71 0 0 0-37.17-23.12z" fill="#8a8a8a" p-id="6242"></path></svg>