<?xml version="1.0" standalone="no"?><!DOCTYPE svg PUBLIC "-//W3C//DTD SVG 1.1//EN" "http://www.w3.org/Graphics/SVG/1.1/DTD/svg11.dtd"><svg t="1711608187168" class="icon" viewBox="0 0 1024 1024" version="1.1" xmlns="http://www.w3.org/2000/svg" p-id="6270" xmlns:xlink="http://www.w3.org/1999/xlink" width="200" height="200"><path d="M324.266667 413.013333c-34.133333 0-64.853333 27.306667-64.853334 64.853334s27.306667 64.853333 64.853334 64.853333c34.133333 0 64.853333-27.306667 64.853333-64.853333s-27.306667-64.853333-64.853333-64.853334zM481.28 273.066667c-34.133333 0-64.853333 27.306667-64.853333 64.853333 0 34.133333 27.306667 64.853333 64.853333 64.853333 34.133333 0 64.853333-27.306667 64.853333-64.853333-3.413333-34.133333-30.72-64.853333-64.853333-64.853333zM672.426667 348.16c-34.133333 0-64.853333 27.306667-64.853334 64.853333 0 34.133333 27.306667 64.853333 64.853334 64.853334 34.133333 0 64.853333-27.306667 64.853333-64.853334-3.413333-34.133333-30.72-64.853333-64.853333-64.853333z" fill="#515151" p-id="6271"></path><path d="M512 0C228.693333 0 0 228.693333 0 512s228.693333 512 512 512 512-228.693333 512-512S795.306667 0 512 0z m238.933333 655.36c-34.133333 17.066667-68.266667 20.48-102.4 20.48-37.546667 3.413333-61.44 3.413333-75.093333 23.893333-6.826667 13.653333-3.413333 27.306667 6.826667 44.373334 10.24 17.066667 23.893333 40.96 3.413333 64.853333-20.48 27.306667-51.2 27.306667-78.506667 27.306667-177.493333 0-324.266667-146.773333-324.266666-324.266667s146.773333-324.266667 324.266666-324.266667 324.266667 146.773333 324.266667 324.266667c6.826667 64.853333-20.48 116.053333-78.506667 143.36z" fill="#515151" p-id="6272"></path></svg>