<?xml version="1.0" standalone="no"?><!DOCTYPE svg PUBLIC "-//W3C//DTD SVG 1.1//EN" "http://www.w3.org/Graphics/SVG/1.1/DTD/svg11.dtd"><svg t="1711018499615" class="icon" viewBox="0 0 1024 1024" version="1.1" xmlns="http://www.w3.org/2000/svg" p-id="2995" xmlns:xlink="http://www.w3.org/1999/xlink" width="200" height="200"><path d="M380.565633 84.168898C391.492953 73.241577 412.883938 64.383234 428.328892 64.383234L596.182087 64.383234C611.633685 64.383234 633.010015 73.233567 643.945345 84.168898L680.111776 120.335329 344.399202 120.335329 380.565633 84.168898Z" fill="#FC5143" p-id="2996"></path><path d="M875.944112 176.287425C891.394856 176.287425 903.92016 163.762122 903.92016 148.311377 903.92016 132.860633 891.394856 120.335329 875.944112 120.335329L148.566866 120.335329C133.116122 120.335329 120.590818 132.860633 120.590818 148.311377 120.590818 163.762122 133.116122 176.287425 148.566866 176.287425L875.944112 176.287425Z" fill="#FC5143" p-id="2997"></path><path d="M180.539492 232.239521 180.254748 228.253099 228.640985 176.287425 232.637564 176.287425 280.347765 844.230242C282.63628 876.269454 312.053012 903.664671 344.377659 903.664671L680.133319 903.664671C712.845805 903.664671 741.848496 876.636282 744.163214 844.230242L791.873414 176.287425 795.869993 176.287425 844.25623 228.253099 843.971486 232.239521 180.539492 232.239521ZM847.968064 176.287425 799.973118 848.216664C795.578506 909.741242 742.362215 959.616766 680.133319 959.616766L344.377659 959.616766C282.586578 959.616766 228.909839 909.424372 224.53786 848.216664L176.542914 176.287425 847.968064 176.287425Z" fill="#FC5143" p-id="2998"></path><path d="M484.279441 763.784431C484.279441 779.235176 496.804744 791.760479 512.255489 791.760479 527.706234 791.760479 540.231537 779.235176 540.231537 763.784431L540.231537 372.11976C540.231537 356.669016 527.706234 344.143713 512.255489 344.143713 496.804744 344.143713 484.279441 356.669016 484.279441 372.11976L484.279441 763.784431Z" fill="#FC5143" p-id="2999"></path><path d="M607.198225 760.600957C605.851604 775.992907 617.237593 789.562199 632.629543 790.908821 648.021493 792.255442 661.590785 780.869453 662.937406 765.477503L697.073232 375.303235C698.419853 359.911285 687.033864 346.341992 671.641914 344.995371 656.249965 343.64875 642.680672 355.034739 641.334051 370.426688L607.198225 760.600957Z" fill="#FC5143" p-id="3000"></path><path d="M361.573572 765.477503C362.920193 780.869453 376.489486 792.255442 391.881435 790.908821 407.273385 789.562199 418.659374 775.992907 417.312753 760.600957L383.176927 370.426688C381.830306 355.034739 368.261013 343.64875 352.869064 344.995371 337.477114 346.341992 326.091125 359.911285 327.437746 375.303235L361.573572 765.477503Z" fill="#FC5143" p-id="3001"></path></svg>