<?xml version="1.0" standalone="no"?><!DOCTYPE svg PUBLIC "-//W3C//DTD SVG 1.1//EN" "http://www.w3.org/Graphics/SVG/1.1/DTD/svg11.dtd"><svg t="1711073692905" class="icon" viewBox="0 0 1024 1024" version="1.1" xmlns="http://www.w3.org/2000/svg" p-id="17236" xmlns:xlink="http://www.w3.org/1999/xlink" width="200" height="200"><path d="M716.8 0h-512c-112.64 0-204.8 92.16-204.8 204.8v614.4c0 112.64 92.16 204.8 204.8 204.8h614.4c112.64 0 204.8-92.16 204.8-204.8v-501.76l-102.4 102.4v389.12c0 61.44-51.2 102.4-102.4 102.4h-614.4c-61.44 0-102.4-40.96-102.4-102.4V204.8c0-61.44 51.2-102.4 102.4-102.4h409.6l102.4-102.4z m20.48 163.84h-10.24l-296.96 296.96c-10.24 10.24-20.48 20.48-20.48 30.72l-51.2 153.6c-10.24 20.48 0 30.72 30.72 30.72l122.88-30.72c10.24 0 30.72-10.24 30.72-20.48l317.44-317.44v-10.24l-122.88-133.12z m71.68-102.4v10.24l143.36 153.6h10.24l30.72-30.72c20.48-20.48 20.48-61.44 0-92.16l-71.68-71.68c-20.48-20.48-61.44-20.48-81.92 0l-30.72 30.72z" fill="" p-id="17237"></path></svg>