<?xml version="1.0" standalone="no"?><!DOCTYPE svg PUBLIC "-//W3C//DTD SVG 1.1//EN" "http://www.w3.org/Graphics/SVG/1.1/DTD/svg11.dtd"><svg t="1711599978539" class="icon" viewBox="0 0 1041 1024" version="1.1" xmlns="http://www.w3.org/2000/svg" p-id="21306" xmlns:xlink="http://www.w3.org/1999/xlink" width="203.3203125" height="200"><path d="M1040.384 295.936q0 11.264-4.608 33.792t-10.752 52.224-11.264 65.024-5.12 71.168q0 33.792 4.608 67.584t10.752 63.488 11.264 53.76 5.12 39.424q0 14.336-11.264 23.04t-29.184 11.776-39.424 0.512-40.96-12.8q-64.512-32.768-136.704-71.68t-142.848-76.8q-8.192 13.312-23.04 21.504t-32.256 8.192l-129.024 0q-17.408 0-32.256-8.192t-23.04-21.504q-70.656 37.888-142.848 76.8t-136.704 71.68q-20.48 10.24-41.472 12.8t-38.912-0.512-29.184-11.776-11.264-23.04q0-15.36 5.12-39.424t11.264-53.76 10.752-63.488 4.608-67.584q0-35.84-5.12-71.168t-10.752-65.024-10.752-52.224-5.12-33.792q0-29.696 28.672-43.008t75.776 10.24q76.8 37.888 152.064 77.312t144.896 75.264q8.192-13.312 22.528-21.504t31.744-8.192l129.024 0q17.408 0 31.744 8.192t22.528 21.504q69.632-35.84 144.896-75.264t152.064-77.312q47.104-23.552 75.776-10.24t28.672 43.008z" p-id="21307"></path></svg>