<?xml version="1.0" standalone="no"?><!DOCTYPE svg PUBLIC "-//W3C//DTD SVG 1.1//EN" "http://www.w3.org/Graphics/SVG/1.1/DTD/svg11.dtd"><svg t="1711599556349" class="icon" viewBox="0 0 1024 1024" version="1.1" xmlns="http://www.w3.org/2000/svg" p-id="7951" xmlns:xlink="http://www.w3.org/1999/xlink" width="200" height="200"><path d="M118.153846 676.627692L298.535385 512l166.990769 74.043077 82.707692-283.569231L937.353846 118.153846v787.692308H118.153846z" fill="#BFBFBF" p-id="7952"></path><path d="M905.846154 937.353846H118.153846c-17.329231 0-31.507692-14.178462-31.507692-31.507692V275.692308c0-17.329231 14.178462-31.507692 31.507692-31.507693s31.507692 14.178462 31.507692 31.507693v598.646154h756.184616c17.329231 0 31.507692 14.178462 31.507692 31.507692s-14.178462 31.507692-31.507692 31.507692z" fill="#7F7F7F" p-id="7953"></path><path d="M118.153846 708.135385c-8.664615 0-17.329231-3.150769-23.630769-10.24-11.815385-12.603077-11.027692-33.083077 2.363077-44.898462L277.267692 488.369231c9.452308-8.664615 22.843077-10.24 33.87077-5.513846l134.695384 59.076923 72.467692-248.91077c2.363077-8.664615 7.876923-14.966154 15.753847-18.904615l357.612307-184.32c15.753846-7.876923 34.658462-1.575385 42.535385 13.390769 7.876923 15.753846 1.575385 34.658462-13.390769 42.535385L575.015385 323.741538 496.246154 594.707692c-2.363077 8.664615-8.664615 15.753846-16.541539 19.692308s-17.329231 3.938462-25.993846 0l-148.873846-65.378462-165.415385 150.449231c-6.301538 5.513846-14.178462 8.664615-21.267692 8.664616z" fill="#7F7F7F" p-id="7954"></path></svg>