<?xml version="1.0" standalone="no"?><!DOCTYPE svg PUBLIC "-//W3C//DTD SVG 1.1//EN" "http://www.w3.org/Graphics/SVG/1.1/DTD/svg11.dtd"><svg t="1711599445080" class="icon" viewBox="0 0 1025 1024" version="1.1" xmlns="http://www.w3.org/2000/svg" p-id="6905" xmlns:xlink="http://www.w3.org/1999/xlink" width="200.1953125" height="200"><path d="M1018.88 619.52C985.6 330.24 926.72 122.88 739.84 122.88c-94.72 0-143.36 97.28-227.84 104.96-87.04-7.68-133.12-104.96-227.84-104.96-186.88 0-245.76 207.36-276.48 494.08-17.92 153.6-2.56 281.6 92.16 281.6 133.12 0 138.24-120.32 232.96-176.64 35.84-17.92 115.2-25.6 181.76-28.16 66.56 2.56 145.92 10.24 181.76 28.16 94.72 56.32 99.84 176.64 232.96 176.64C1021.44 901.12 1034.24 773.12 1018.88 619.52L1018.88 619.52zM286.72 593.92C212.48 593.92 153.6 532.48 153.6 460.8s58.88-133.12 133.12-133.12 133.12 58.88 133.12 133.12S358.4 593.92 286.72 593.92L286.72 593.92zM883.2 486.4l-104.96 0 0 104.96-51.2 0L727.04 486.4l-104.96 0 0-51.2 104.96 0L727.04 332.8l51.2 0L778.24 435.2l104.96 0L883.2 486.4 883.2 486.4 883.2 486.4zM883.2 486.4" fill="#272636" p-id="6906"></path><path d="M209.92 460.8c0 20.48 7.68 38.4 23.04 53.76 12.8 12.8 33.28 23.04 53.76 23.04 20.48 0 38.4-7.68 53.76-23.04 12.8-12.8 23.04-33.28 23.04-53.76 0-20.48-7.68-38.4-23.04-53.76-12.8-12.8-33.28-23.04-53.76-23.04-20.48 0-38.4 7.68-53.76 23.04C217.6 419.84 209.92 440.32 209.92 460.8L209.92 460.8zM209.92 460.8" fill="#272636" p-id="6907"></path></svg>