<?xml version="1.0" standalone="no"?><!DOCTYPE svg PUBLIC "-//W3C//DTD SVG 1.1//EN" "http://www.w3.org/Graphics/SVG/1.1/DTD/svg11.dtd"><svg t="1711599871041" class="icon" viewBox="0 0 1024 1024" version="1.1" xmlns="http://www.w3.org/2000/svg" p-id="14694" xmlns:xlink="http://www.w3.org/1999/xlink" width="200" height="200"><path d="M512 64C264.8 64 64 264.8 64 512s200.8 448 448 448 448-200.8 448-448S759.2 64 512 64z m-46.4 831.2c-189.6-23.2-336-184.8-336-380.8 0-29.6 4-58.4 10.4-85.6l229.6 229.6v48c0 52.8 43.2 96 96 96v92.8z m331.2-124c-12-39.2-48-67.2-91.2-67.2h-48V560.8c0-27.2-21.6-48.8-48.8-48.8H313.6V416h103.2c27.2 0 48.8-21.6 48.8-48.8V272H560c53.6 0 97.6-44 97.6-97.6v-18.4c140.8 56.8 240 194.4 240 356 0 100-37.6 190.4-100.8 259.2z" p-id="14695"></path></svg>