<?xml version="1.0" standalone="no"?><!DOCTYPE svg PUBLIC "-//W3C//DTD SVG 1.1//EN" "http://www.w3.org/Graphics/SVG/1.1/DTD/svg11.dtd"><svg t="1711082292057" class="icon" viewBox="0 0 1024 1024" version="1.1" xmlns="http://www.w3.org/2000/svg" p-id="20220" xmlns:xlink="http://www.w3.org/1999/xlink" width="200" height="200"><path d="M64 512c0-31.44 10.92-58.07 32.75-79.91 21.83-21.83 48.47-32.75 79.9-32.75 31.44 0 58.08 10.92 79.91 32.75s32.75 48.47 32.75 79.91-10.92 58.07-32.75 79.91c-21.83 21.83-48.47 32.75-79.91 32.75-31.44 0-58.07-10.91-79.9-32.75C74.92 570.07 64 543.44 64 512z m335.35 0c0-31.44 10.91-58.07 32.75-79.91 21.83-21.83 48.47-32.75 79.91-32.75 31.44 0 58.07 10.92 79.91 32.75 21.83 21.83 32.75 48.47 32.75 79.91s-10.92 58.07-32.75 79.91c-21.83 21.83-48.47 32.75-79.91 32.75-31.44 0-58.07-10.91-79.91-32.75-21.84-21.84-32.75-48.47-32.75-79.91z m335.34 0c0-31.44 10.92-58.07 32.75-79.91 21.83-21.83 48.47-32.75 79.91-32.75s58.07 10.92 79.91 32.75C949.09 453.93 960 480.56 960 512s-10.91 58.07-32.75 79.91-48.47 32.75-79.91 32.75-58.07-10.91-79.91-32.75c-21.82-21.84-32.74-48.47-32.74-79.91z" p-id="20221"></path></svg>