<?xml version="1.0" standalone="no"?><!DOCTYPE svg PUBLIC "-//W3C//DTD SVG 1.1//EN" "http://www.w3.org/Graphics/SVG/1.1/DTD/svg11.dtd"><svg t="1711020732022" class="icon" viewBox="0 0 1024 1024" version="1.1" xmlns="http://www.w3.org/2000/svg" p-id="6085" xmlns:xlink="http://www.w3.org/1999/xlink" width="200" height="200"><path d="M511.953 585.058c138.436 0.008 257.602-97.778 284.612-233.561C823.584 215.721 750.922 79.77 623.027 26.783c-127.902-52.98-275.417-8.242-352.335 106.858-76.917 115.103-61.818 268.515 36.068 366.415a288.302 288.302 0 0 0 205.193 85.002z m0-524.8c129.366 0 234.617 105.245 234.617 234.617 0 129.374-105.251 234.617-234.617 234.617-129.373 0-234.615-105.243-234.615-234.617 0-129.373 105.243-234.617 234.615-234.617z m110.502 542.461H401.422c-205.416 0-372.485 138.188-372.485 308.085v18.288c0 88.823 164.392 88.823 372.485 88.823h221.033c199.905 0 372.533 0 372.533-88.823v-18.288c-0.013-169.863-167.118-308.085-372.533-308.085z m308.423 326.373c0 5.323-1.178 6.83-5.506 9.645-5.632 3.644-20.145 10.583-54.09 16.052-62 10.1-152.744 10.1-248.827 10.1H401.422c-98.135 0-190.818 0-251.691-10.075-32.613-5.396-46.27-12.089-51.509-15.594-3.394-2.272-5.173-3.707-5.173-10.188v-18.227c0-140.672 138.302-255.116 308.374-255.116h221.033c170.059 0 308.409 114.444 308.423 255.116v18.287z m0 0" fill="#1B1B1F" p-id="6086"></path></svg>