<?xml version="1.0" standalone="no"?><!DOCTYPE svg PUBLIC "-//W3C//DTD SVG 1.1//EN" "http://www.w3.org/Graphics/SVG/1.1/DTD/svg11.dtd"><svg t="1710321122200" class="icon" viewBox="0 0 1024 1024" version="1.1" xmlns="http://www.w3.org/2000/svg" p-id="3877" xmlns:xlink="http://www.w3.org/1999/xlink" width="200" height="200"><path d="M785.9 452.8H336.8V310.5c0-95.1 77.4-172.4 172.4-172.4h8.2c95.1 0 172.4 77.4 172.4 172.4 0 22.1 17.9 40 40 40s40-17.9 40-40c0-67.4-26.3-130.8-73.9-178.5-47.7-47.7-111.1-73.9-178.5-73.9h-8.2c-67.4 0-130.8 26.3-178.5 73.9-47.7 47.7-73.9 111.1-73.9 178.5v142.2H242c-52.6 0-95.2 42.6-95.2 95.2V858c0 52.6 42.6 95.2 95.2 95.2h543.9c52.6 0 95.2-42.6 95.2-95.2V548c0-52.6-42.6-95.2-95.2-95.2z m-237 261v88.1c0 16.3-13.2 29.5-29.5 29.5h-11c-16.3 0-29.5-13.2-29.5-29.5v-89.1c-16.6-11.4-27.4-30.5-27.4-52.1 0-34.9 28.3-63.2 63.2-63.2s63.2 28.3 63.2 63.2c0 22.3-11.5 41.9-29 53.1z" fill="#424242" p-id="3878"></path></svg>