<?xml version="1.0" standalone="no"?><!DOCTYPE svg PUBLIC "-//W3C//DTD SVG 1.1//EN" "http://www.w3.org/Graphics/SVG/1.1/DTD/svg11.dtd"><svg t="1711599963476" class="icon" viewBox="0 0 1024 1024" version="1.1" xmlns="http://www.w3.org/2000/svg" p-id="20091" xmlns:xlink="http://www.w3.org/1999/xlink" width="200" height="200"><path d="M901.76 427.626667l26.56 203.306666c16.789333 128.490667-73.770667 246.293333-202.261333 263.082667a234.666667 234.666667 0 0 1-30.421334 1.984H328.362667c-129.6 0-234.666667-105.066667-234.666667-234.666667a234.666667 234.666667 0 0 1 1.984-30.421333l26.581333-203.306667a400.917333 400.917333 0 0 1-61.44-70.848C27.733333 308.544 15.061333 262.378667 24.234667 218.88c2.197333-10.389333 6.890667-20.053333 13.653333-28.117333 30.037333-35.818667 80.426667-60.608 150.741333-75.456 48.64-10.282667 96.426667-11.413333 143.317334-3.370667a61.824 61.824 0 0 1 35.456 19.626667V128h292.693333a61.802667 61.802667 0 0 1 31.957333-16.042667c46.869333-8.042667 94.698667-6.912 143.317334 3.370667 70.336 14.848 120.704 39.637333 150.741333 75.456 6.762667 8.064 11.456 17.706667 13.653333 28.117333 9.173333 43.477333-3.52 89.642667-36.586666 137.856a400.917333 400.917333 0 0 1-61.44 70.869334z m-40.426667 20.096a61.568 61.568 0 0 1-53.44-22.336 64.192 64.192 0 0 1-10.282666-17.536c-10.666667-27.306667-30.634667-59.157333-59.989334-95.296a1959.786667 1959.786667 0 0 0-80.533333-93.696A64.618667 64.618667 0 0 1 640.149333 170.666667H383.850667a64.618667 64.618667 0 0 1-16.938667 48.213333 1959.786667 1959.786667 0 0 0-80.533333 93.674667c-29.354667 36.138667-49.322667 67.989333-59.989334 95.296-2.496 6.378667-5.973333 12.288-10.282666 17.536a61.568 61.568 0 0 1-53.44 22.336l-24.682667 188.714666A192 192 0 0 0 328.362667 853.333333h367.274666a192 192 0 0 0 190.378667-216.896l-24.682667-188.714666zM512 674.282667A149.248 149.248 0 0 1 384 746.666667a21.333333 21.333333 0 0 1 0-42.666667 106.666667 106.666667 0 0 0 106.666667-106.666667c0-1.834667 0.213333-3.626667 0.661333-5.333333a42.666667 42.666667 0 1 1 41.344 0c0.426667 1.706667 0.661333 3.498667 0.661333 5.333333a106.666667 106.666667 0 0 0 106.666667 106.666667 21.333333 21.333333 0 0 1 0 42.666667 149.248 149.248 0 0 1-128-72.362667zM682.666667 533.333333a42.666667 42.666667 0 1 1 0-85.333333 42.666667 42.666667 0 0 1 0 85.333333zM184.490667 397.802667c1.429333-1.749333 2.56-3.712 3.413333-5.845334 12.373333-31.936 34.432-67.392 66.112-106.624a1995.669333 1995.669333 0 0 1 81.664-95.68 21.76 21.76 0 0 0-0.789333-30.08 20.394667 20.394667 0 0 0-10.773334-5.546666c-41.429333-7.146667-83.733333-6.144-127.061333 3.072-61.653333 13.12-103.722667 33.962667-126.613333 61.44a21.546667 21.546667 0 0 0-4.522667 9.386666c-6.4 30.549333 3.029333 65.109333 29.738667 104.32a354.432 354.432 0 0 0 59.754666 68.053334 20.202667 20.202667 0 0 0 29.077334-2.496z m655.04 0a20.202667 20.202667 0 0 0 29.077333 2.496c21.973333-19.2 41.898667-41.856 59.733333-68.053334 26.730667-39.210667 36.138667-73.770667 29.738667-104.32a21.546667 21.546667 0 0 0-4.501333-9.386666c-22.890667-27.477333-64.981333-48.32-126.613334-61.44-43.328-9.216-85.632-10.24-127.061333-3.072a20.394667 20.394667 0 0 0-10.773333 5.546666 21.76 21.76 0 0 0-0.789334 30.08 1995.669333 1995.669333 0 0 1 81.664 95.68c31.68 39.253333 53.738667 74.666667 66.133334 106.624 0.810667 2.133333 1.962667 4.096 3.413333 5.845334zM341.333333 533.333333a42.666667 42.666667 0 1 1 0-85.333333 42.666667 42.666667 0 0 1 0 85.333333z" fill="#3D3D3D" p-id="20092"></path></svg>