<?xml version="1.0" standalone="no"?><!DOCTYPE svg PUBLIC "-//W3C//DTD SVG 1.1//EN" "http://www.w3.org/Graphics/SVG/1.1/DTD/svg11.dtd"><svg t="1711599595387" class="icon" viewBox="0 0 1024 1024" version="1.1" xmlns="http://www.w3.org/2000/svg" p-id="9014" xmlns:xlink="http://www.w3.org/1999/xlink" width="200" height="200"><path d="M145 497.3c-4.1 0-8.3-1.6-11.4-4.7-43.7-43.7-67.8-101.8-67.8-163.5C65.8 201.6 169.5 97.9 297 97.9c114.2 0 186.9 75 227.7 137.8 4.9 7.5 2.7 17.5-4.8 22.4-7.5 4.8-17.6 2.7-22.4-4.8-36.4-56.1-100.8-123-200.5-123-109.6 0-198.8 89.2-198.8 198.8 0 53.1 20.7 103.1 58.3 140.6 6.3 6.3 6.3 16.6 0 22.9-3.2 3.1-7.3 4.7-11.5 4.7z" fill="#4D4D4D" p-id="9015"></path><path d="M879.2 497.1c-4.1 0-8.3-1.6-11.4-4.7-6.3-6.3-6.3-16.6 0-22.9 37.4-37.5 58-87.4 58-140.4 0-109.6-89.2-198.8-198.8-198.8-101.3 0-165.9 67.2-202.2 123.6-4.8 7.5-14.9 9.7-22.4 4.8-7.5-4.8-9.7-14.9-4.8-22.4C538.2 173.1 611.1 97.9 727 97.9c127.5 0 231.2 103.7 231.2 231.2 0 61.6-24 119.6-67.5 163.3-3.2 3.1-7.3 4.7-11.5 4.7zM299.2 651.5c-4.1 0-8.1-1.5-11.3-4.6-44.4-43-148.5-144.4-155.8-156.4-4.6-7.6-2.2-17.6 5.4-22.3 7.5-4.6 17.3-2.3 22 5 8.1 10.9 96.7 97.9 150.9 150.4 6.4 6.2 6.6 16.5 0.4 22.9-3.1 3.3-7.4 5-11.6 5z" fill="#4D4D4D" p-id="9016"></path><path d="M582.5 794.3c-4.2 0-8.4-1.6-11.5-4.8-6.3-6.4-6.2-16.6 0.2-22.9 112.7-110.9 284-280.7 294.2-293.8 4.6-7.6 14.3-9.6 22-5 7.6 4.7 9.8 15 5.1 22.7-7 11.5-190 192.4-298.5 299.2-3.3 3.1-7.4 4.6-11.5 4.6z" fill="#4D4D4D" p-id="9017"></path><path d="M529 926.1c-50.5 0-91.5-41.1-91.5-91.5s41-91.5 91.5-91.5 91.5 41.1 91.5 91.5-41.1 91.5-91.5 91.5z m0-150.6c-32.6 0-59.1 26.5-59.1 59.1s26.5 59.1 59.1 59.1 59.1-26.5 59.1-59.1-26.5-59.1-59.1-59.1zM340.4 762.9c-13 0-25.2-5.1-34.4-14.2l-37.2-37.2c-18.9-18.9-18.9-49.8 0-68.7l37.2-37.2c18.3-18.4 50.3-18.3 68.7 0l37.2 37.2c18.9 18.9 18.9 49.8 0 68.7l-37.2 37.2c-9.1 9.1-21.3 14.2-34.3 14.2z m0-139.2c-4.3 0-8.4 1.7-11.5 4.7l-37.2 37.2c-6.3 6.3-6.3 16.6 0 22.9l37.2 37.2c6.1 6.1 16.8 6.1 22.9 0l37.2-37.2c6.3-6.3 6.3-16.6 0-22.9l-37.2-37.2c-3-3-7-4.7-11.4-4.7z" fill="#4D4D4D" p-id="9018"></path></svg>