<?xml version="1.0" standalone="no"?><!DOCTYPE svg PUBLIC "-//W3C//DTD SVG 1.1//EN" "http://www.w3.org/Graphics/SVG/1.1/DTD/svg11.dtd"><svg t="1711599285626" class="icon" viewBox="0 0 1024 1024" version="1.1" xmlns="http://www.w3.org/2000/svg" p-id="4668" xmlns:xlink="http://www.w3.org/1999/xlink" width="200" height="200"><path d="M507.739286 1024c-112.019025 0-178.98692-260.295416-178.98692-512.067644S395.720261 0 507.739286 0s179.122209 260.295416 179.122209 511.932356-66.967895 512.067644-179.122209 512.067644z m0-993.695336c-87.667063 0-148.817545 253.801559-148.817545 481.627692s61.150482 481.762981 148.817545 481.76298 148.817545-253.936848 148.817545-481.76298-60.744616-481.627692-148.817545-481.627692z" fill="#484F59" p-id="4669"></path><path d="M840.955299 813.22024c-104.578148 0-266.518695-56.009512-422.777117-146.111771-116.212974-67.644339-216.461884-145.435328-284.106223-220.249967C63.721846 367.849914 38.964018 300.070287 64.39829 255.966178c11.905404-20.699168 40.586603-45.321707 110.124983-45.321707 104.578148 0 266.518695 56.009512 422.777118 146.24706 116.212974 67.644339 216.461884 145.435328 284.106222 220.249967 70.485401 79.008588 94.702074 146.788215 69.808958 190.892324-12.040692 20.563879-40.857181 45.186418-110.260272 45.186418zM174.523273 240.949135c-30.304664 0-69.53838 5.276258-83.87898 30.169375-17.858105 30.845818 6.899723 89.01995 66.156164 155.581979C221.603733 499.21522 319.823313 575.247457 433.465802 640.862465c151.929185 87.667063 308.052319 142.1884 407.624785 142.1884 30.439952 0 69.53838-5.276258 84.014269-30.169375 17.858105-30.981107-6.899723-89.01995-66.291452-155.581979-64.803277-72.514731-162.346413-148.817545-276.530057-214.161976-152.064474-87.667063-308.187607-142.1884-407.760074-142.1884z" fill="#484F59" p-id="4670"></path><path d="M174.523273 813.355529c-69.403092 0-98.21958-24.757828-110.124983-45.321707-25.434271-44.104109 0-111.883736 69.808957-190.892324 66.832607-74.814639 167.75796-153.011494 284.106223-220.249967 156.123134-90.237548 318.198969-146.24706 422.641829-146.24706 69.403092 0 98.21958 24.622539 110.124983 45.321707 25.434271 44.104109 0 111.883736-69.808957 190.892324-66.832607 74.814639-167.622671 153.011494-284.106223 220.249967C441.041968 757.616594 279.101421 813.355529 174.523273 813.355529z m666.432026-572.406394c-99.437178 0-255.6956 54.115471-407.624786 142.1884-113.5072 65.615009-211.72678 141.647245-276.530056 214.161976-59.256441 66.562029-84.014269 124.600872-66.156164 155.581979 14.3406 24.893117 54.115471 30.169375 83.87898 30.169375 99.572467 0 255.6956-54.115471 407.624786-142.1884 113.642489-65.615009 211.72678-141.647245 276.530056-214.161976 59.391729-66.562029 84.149557-124.736161 66.291452-155.581979-14.475888-24.893117-53.574316-30.169375-84.014268-30.169375z" fill="#484F59" p-id="4671"></path><path d="M954.191922 615.428194A60.609328 60.609328 0 1 1 893.447306 554.683578a60.609328 60.609328 0 0 1 60.744616 60.744616z" fill="#01DEE9" p-id="4672"></path><path d="M893.447306 691.054565a75.761659 75.761659 0 1 1 75.761659-75.626371 75.761659 75.761659 0 0 1-75.761659 75.626371z m0-121.083367a45.456996 45.456996 0 1 0 45.456995 45.456996A45.456996 45.456996 0 0 0 893.447306 569.971198z" fill="#484F59" p-id="4673"></path><path d="M464.852775 136.235698a60.609328 60.609328 0 1 1-60.474039-60.609327 60.474039 60.474039 0 0 1 60.474039 60.609327z" fill="#FFDC69" p-id="4674"></path><path d="M404.378736 211.862069a75.761659 75.761659 0 1 1 75.626371-75.626371 75.626371 75.626371 0 0 1-75.626371 75.626371z m0-121.083366a45.456996 45.456996 0 1 0 45.321707 45.456995 45.592284 45.592284 0 0 0-45.321707-45.456995z" fill="#484F59" p-id="4675"></path><path d="M268.143038 796.985599a60.609328 60.609328 0 1 1-60.474039-60.609327 60.474039 60.474039 0 0 1 60.474039 60.609327z" fill="#D5E962" p-id="4676"></path><path d="M207.668999 872.61197a75.626371 75.626371 0 1 1 75.626371-75.626371 75.761659 75.761659 0 0 1-75.626371 75.626371z m0-121.75981a45.456996 45.456996 0 1 0 45.321707 45.456996 45.592284 45.592284 0 0 0-45.321707-44.780552z" fill="#484F59" p-id="4677"></path><path d="M584.989121 511.932356a73.191175 73.191175 0 1 1-73.055886-73.055886 73.191175 73.191175 0 0 1 73.055886 73.055886z" fill="#FF8F8F" p-id="4678"></path><path d="M511.933235 600.275862a88.343506 88.343506 0 1 1 88.208218-88.343506 88.478795 88.478795 0 0 1-88.208218 88.343506z m0-146.24706a58.038843 58.038843 0 1 0 58.038843 57.903554 58.038843 58.038843 0 0 0-58.038843-57.903554z" fill="#484F59" p-id="4679"></path></svg>