<?xml version="1.0" standalone="no"?><!DOCTYPE svg PUBLIC "-//W3C//DTD SVG 1.1//EN" "http://www.w3.org/Graphics/SVG/1.1/DTD/svg11.dtd"><svg t="1711600012949" class="icon" viewBox="0 0 1024 1024" version="1.1" xmlns="http://www.w3.org/2000/svg" p-id="23631" xmlns:xlink="http://www.w3.org/1999/xlink" width="200" height="200"><path d="M196.923077 196.923077h157.538461v630.153846H196.923077z" fill="#515151" p-id="23632"></path><path d="M354.461538 858.584615H196.923077c-17.329231 0-31.507692-14.178462-31.507692-31.507692V196.923077c0-17.329231 14.178462-31.507692 31.507692-31.507692h157.538461c17.329231 0 31.507692 14.178462 31.507693 31.507692v630.153846c0 17.329231-14.178462 31.507692-31.507693 31.507692z m-126.030769-63.015384h94.523077V228.430769H228.430769v567.138462z" fill="#515151" p-id="23633"></path><path d="M669.538462 622.276923H354.461538c-17.329231 0-31.507692-14.178462-31.507692-31.507692V433.230769c0-17.329231 14.178462-31.507692 31.507692-31.507692h315.076924c17.329231 0 31.507692 14.178462 31.507692 31.507692v157.538462c0 17.329231-14.178462 31.507692-31.507692 31.507692z m-283.569231-63.015385h252.061538V464.738462H385.969231v94.523076z" fill="#515151" p-id="23634"></path><path d="M118.153846 354.461538h78.769231v315.076924H118.153846z" fill="#515151" p-id="23635"></path><path d="M196.923077 701.046154H118.153846c-17.329231 0-31.507692-14.178462-31.507692-31.507692V354.461538c0-17.329231 14.178462-31.507692 31.507692-31.507692h78.769231c17.329231 0 31.507692 14.178462 31.507692 31.507692v315.076924c0 17.329231-14.178462 31.507692-31.507692 31.507692z m-47.261539-63.015385h15.753847V385.969231h-15.753847v252.061538z" fill="#515151" p-id="23636"></path><path d="M827.076923 827.076923H669.538462V196.923077h157.538461z" fill="#515151" p-id="23637"></path><path d="M827.076923 858.584615H669.538462c-17.329231 0-31.507692-14.178462-31.507693-31.507692V196.923077c0-17.329231 14.178462-31.507692 31.507693-31.507692h157.538461c17.329231 0 31.507692 14.178462 31.507692 31.507692v630.153846c0 17.329231-14.178462 31.507692-31.507692 31.507692z m-126.030769-63.015384h94.523077V228.430769H701.046154v567.138462z" fill="#515151" p-id="23638"></path><path d="M905.846154 669.538462h-78.769231V354.461538h78.769231z" fill="#515151" p-id="23639"></path><path d="M905.846154 701.046154h-78.769231c-17.329231 0-31.507692-14.178462-31.507692-31.507692V354.461538c0-17.329231 14.178462-31.507692 31.507692-31.507692h78.769231c17.329231 0 31.507692 14.178462 31.507692 31.507692v315.076924c0 17.329231-14.178462 31.507692-31.507692 31.507692z m-47.261539-63.015385h15.753847V385.969231h-15.753847v252.061538z" fill="#515151" p-id="23640"></path></svg>