<?xml version="1.0" standalone="no"?><!DOCTYPE svg PUBLIC "-//W3C//DTD SVG 1.1//EN" "http://www.w3.org/Graphics/SVG/1.1/DTD/svg11.dtd"><svg t="1711599677979" class="icon" viewBox="0 0 1024 1024" version="1.1" xmlns="http://www.w3.org/2000/svg" p-id="10076" xmlns:xlink="http://www.w3.org/1999/xlink" width="200" height="200"><path d="M818.1248 199.0656h-25.6V113.2032a44.9024 44.9024 0 0 0-44.8512-44.8512H224.5632a91.0848 91.0848 0 0 0-90.9824 90.9824V839.68a113.9712 113.9712 0 0 0 113.8688 113.8176h538.624A104.8064 104.8064 0 0 0 890.88 848.9984V271.7184a72.7552 72.7552 0 0 0-72.7552-72.6528zM224.5632 119.552h517.12v79.5136h-517.12a39.7824 39.7824 0 1 1 0-79.5136zM839.68 848.9984a53.5552 53.5552 0 0 1-53.504 53.504H247.4496A62.6688 62.6688 0 0 1 184.7808 839.68V241.152a90.9824 90.9824 0 0 0 39.7824 9.1136h593.5616a21.504 21.504 0 0 1 21.5552 21.4528z" fill="#333333" p-id="10077"></path><path d="M695.7056 431.872h-351.232a25.6 25.6 0 0 0 0 51.2h351.232a25.6 25.6 0 0 0 0-51.2zM576.7168 647.5776H344.4736a25.6 25.6 0 0 0 0 51.2h232.2432a25.6 25.6 0 1 0 0-51.2z" fill="#333333" p-id="10078"></path></svg>