<?xml version="1.0" standalone="no"?><!DOCTYPE svg PUBLIC "-//W3C//DTD SVG 1.1//EN" "http://www.w3.org/Graphics/SVG/1.1/DTD/svg11.dtd"><svg t="1711599750258" class="icon" viewBox="0 0 1024 1024" version="1.1" xmlns="http://www.w3.org/2000/svg" p-id="12403" xmlns:xlink="http://www.w3.org/1999/xlink" width="200" height="200"><path d="M716.94336 324.1472h-5.8368V242.6112h-53.22752v81.52576h-292.7616V242.61632H311.9104v81.52576h-5.87776c-67.17952 0-121.83552 54.63552-121.83552 121.83552v348.78464c0 67.2 54.656 121.856 121.83552 121.856h19.16928v7.59808a35.48672 35.48672 0 0 0 70.97344 0v-7.59808h230.67136v7.59808a35.48672 35.48672 0 0 0 70.96832 0v-7.59808h19.12832c67.2 0 121.856-54.656 121.856-121.856V445.9776c0-67.2-54.656-121.83552-121.856-121.83552z m66.10432 470.61504c0 36.43392-29.6448 66.07872-66.0992 66.07872H306.02752c-36.43904 0-66.08384-29.6448-66.08384-66.07872V445.9776c0-36.43392 29.6448-66.08384 66.08384-66.08384h410.91072c36.4544 0 66.10432 29.6448 66.10432 66.08384v348.78464zM369.4848 460.1344a26.61376 26.61376 0 0 0-26.60352 26.624v267.2128a26.61376 26.61376 0 1 0 53.22752 0v-267.2128c0-14.6944-11.904-26.624-26.624-26.624z m284.02688 0a26.61376 26.61376 0 0 0-26.60352 26.624v267.2128a26.61376 26.61376 0 1 0 53.22752 0v-267.2128c0-14.6944-11.9296-26.624-26.624-26.624zM365.11744 179.01568c0-34.24256 27.86816-62.09024 62.1056-62.09024h168.57088c34.23744 0 62.08512 27.84768 62.08512 62.09024v28.11392h53.22752v-28.11392c0-63.58016-51.7376-115.31776-115.31264-115.31776H427.22816c-63.60064 0-115.31776 51.7376-115.31776 115.31776v28.11392h53.20704v-28.11392z" fill="#272636" p-id="12404"></path></svg>