<?xml version="1.0" standalone="no"?><!DOCTYPE svg PUBLIC "-//W3C//DTD SVG 1.1//EN" "http://www.w3.org/Graphics/SVG/1.1/DTD/svg11.dtd"><svg t="1711607164609" class="icon" viewBox="0 0 1024 1024" version="1.1" xmlns="http://www.w3.org/2000/svg" p-id="25788" xmlns:xlink="http://www.w3.org/1999/xlink" width="200" height="200"><path d="M0 0h1024v1024H0V0z" fill="#202425" opacity=".01" p-id="25789"></path><path d="M743.867733 102.4a17.066667 17.066667 0 0 1 12.049067 4.983467l256.750933 256.750933a17.066667 17.066667 0 0 1 0.7168 23.3472L524.8 941.226667a17.066667 17.066667 0 0 1-25.6 0L10.615467 387.4816a17.066667 17.066667 0 0 1 0.7168-23.3472l256.750933-256.750933A17.066667 17.066667 0 0 1 280.132267 102.4h463.735466z" fill="#11AA66" p-id="25790"></path><path d="M499.165867 360.789333L278.016 108.066133A3.413333 3.413333 0 0 1 280.576 102.4h462.848a3.413333 3.413333 0 0 1 2.56 5.666133l-221.149867 252.7232a17.066667 17.066667 0 0 1-25.668266 0z" fill="#FFAA44" p-id="25791"></path><path d="M250.606933 383.8976a34.133333 34.133333 0 0 1 48.128 3.242667L512 630.852267l213.230933-243.712a34.133333 34.133333 0 0 1 51.4048 44.919466l-238.933333 273.066667a34.133333 34.133333 0 0 1-51.4048 0l-238.933333-273.066667a34.133333 34.133333 0 0 1 3.242666-48.128z" fill="#FFFFFF" p-id="25792"></path></svg>