<?xml version="1.0" standalone="no"?><!DOCTYPE svg PUBLIC "-//W3C//DTD SVG 1.1//EN" "http://www.w3.org/Graphics/SVG/1.1/DTD/svg11.dtd"><svg t="1711599701470" class="icon" viewBox="0 0 1024 1024" version="1.1" xmlns="http://www.w3.org/2000/svg" p-id="11162" xmlns:xlink="http://www.w3.org/1999/xlink" width="200" height="200"><path d="M587.946667 96a74.666667 74.666667 0 0 1 74.026666 84.48l-0.810666 4.821333-30.592 152.96 154.282666 385.706667a74.666667 74.666667 0 0 1-22.613333 85.973333l-5.290667 3.882667-203.52 135.68a74.666667 74.666667 0 0 1-76.928 3.584l-5.930666-3.584-203.52-135.68a74.666667 74.666667 0 0 1-30.08-83.626667l2.176-6.229333 154.24-385.706667-30.549334-152.96A74.666667 74.666667 0 0 1 415.146667 98.986667l6.272-1.536a74.666667 74.666667 0 0 1 9.728-1.28l4.906666-0.170667h151.893334zM556.970667 384h-90.026667l-34.133333 85.333333H512a42.666667 42.666667 0 0 1 0 85.333334H398.677333l-77.184 192.896 190.421334 127.061333 190.506666-126.976L556.928 384z m-107.946667-202.752L472.490667 298.666667h78.933333l23.552-117.333334-125.952-0.085333z" fill="#000000" p-id="11163"></path></svg>