<?xml version="1.0" standalone="no"?><!DOCTYPE svg PUBLIC "-//W3C//DTD SVG 1.1//EN" "http://www.w3.org/Graphics/SVG/1.1/DTD/svg11.dtd"><svg t="1711005478501" class="icon" viewBox="0 0 1024 1024" version="1.1" xmlns="http://www.w3.org/2000/svg" p-id="3618" xmlns:xlink="http://www.w3.org/1999/xlink" width="200" height="200"><path d="M819.2 887.716978 204.8 887.716978c-37.705956 0-68.266667-30.583467-68.266667-68.266667l0-614.4c0-37.6832 30.560711-68.266667 68.266667-68.266667l341.333333 0 45.511111 0 22.755556 0c12.583822 0 22.755556 10.171733 22.755556 22.755556s-10.171733 22.755556-22.755556 22.755556l-22.755556 0-45.511111 0L227.555556 182.294756c-25.122133 0-45.511111 20.388978-45.511111 45.511111l0 568.888889c0 25.122133 20.388978 45.511111 45.511111 45.511111l568.888889 0c25.122133 0 45.511111-20.388978 45.511111-45.511111l0-364.088889 0-41.3696 0-4.141511c0-12.583822 10.171733-22.755556 22.755556-22.755556s22.755556 10.171733 22.755556 22.755556l0 45.511111 0 386.844444C887.466667 857.133511 856.8832 887.716978 819.2 887.716978zM447.670044 586.274133c-8.874667 8.897422-23.278933 8.897422-32.176356 0s-8.897422-23.278933 0-32.176356L824.411022 142.927644c8.897422-8.897422 23.278933-8.897422 32.176356 0s8.897422 23.301689 0 32.176356L447.670044 586.274133z" fill="#231815" p-id="3619"></path></svg>